<svg id="Layer_1" data-name="Layer 1" xmlns="http://www.w3.org/2000/svg" viewBox="0 0 36.03 77.5"><defs><style>.cls-1{fill:#0095ac;}</style></defs><title>MS</title><path class="cls-1" d="M35,2,0,1,35,0a1,1,0,0,1,1,1,1,1,0,0,1-1,1Z"/><path class="cls-1" d="M22,5.5H13a.5.5,0,0,1,0-1h9a.5.5,0,0,1,0,1Z"/><path class="cls-1" d="M22,9.5H13a.5.5,0,0,1,0-1h9a.5.5,0,0,1,0,1Z"/><path class="cls-1" d="M22,13.5H13a.5.5,0,0,1,0-1h9a.5.5,0,0,1,0,1Z"/><path class="cls-1" d="M22,17.5H13a.5.5,0,0,1,0-1h9a.5.5,0,0,1,0,1Z"/><path class="cls-1" d="M22,21.5H13a.5.5,0,0,1,0-1h9a.5.5,0,0,1,0,1Z"/><path class="cls-1" d="M22,25.5H13a.5.5,0,0,1,0-1h9a.5.5,0,0,1,0,1Z"/><path class="cls-1" d="M22,29.5H13a.5.5,0,0,1,0-1h9a.5.5,0,0,1,0,1Z"/><path class="cls-1" d="M22,33.5H13a.5.5,0,0,1,0-1h9a.5.5,0,0,1,0,1Z"/><path class="cls-1" d="M22,37.5H13a.5.5,0,0,1,0-1h9a.5.5,0,0,1,0,1Z"/><path class="cls-1" d="M22,41.5H13a.5.5,0,0,1,0-1h9a.5.5,0,0,1,0,1Z"/><path class="cls-1" d="M22,45.5H13a.5.5,0,0,1,0-1h9a.5.5,0,0,1,0,1Z"/><path class="cls-1" d="M22,49.5H13a.5.5,0,0,1,0-1h9a.5.5,0,0,1,0,1Z"/><path class="cls-1" d="M22,53.5H13a.5.5,0,0,1,0-1h9a.5.5,0,0,1,0,1Z"/><path class="cls-1" d="M22,57.5H13a.5.5,0,0,1,0-1h9a.5.5,0,0,1,0,1Z"/><path class="cls-1" d="M22,61.5H13a.5.5,0,0,1,0-1h9a.5.5,0,0,1,0,1Z"/><path class="cls-1" d="M22,65.5H13a.5.5,0,0,1,0-1h9a.5.5,0,0,1,0,1Z"/><path class="cls-1" d="M22,69.5H13a.5.5,0,0,1,0-1h9a.5.5,0,0,1,0,1Z"/><path class="cls-1" d="M22,73.5H13a.5.5,0,0,1,0-1h9a.5.5,0,0,1,0,1Z"/></svg>